<?xml version="1.0" standalone="no"?>
<!DOCTYPE svg PUBLIC "-//W3C//DTD SVG 20010904//EN"
 "http://www.w3.org/TR/2001/REC-SVG-20010904/DTD/svg10.dtd">
<svg version="1.0" xmlns="http://www.w3.org/2000/svg"
 width="260.000000pt" height="260.000000pt" viewBox="0 0 260.000000 260.000000"
 preserveAspectRatio="xMidYMid meet">
<metadata>
Created by potrace 1.11, written by Peter Selinger 2001-2013
</metadata>
<g transform="translate(0.000000,260.000000) scale(0.100000,-0.100000)"
fill="#000000" stroke="none">
<path d="M445 2496 c-96 -24 -166 -71 -218 -149 -58 -85 -67 -134 -67 -360 l0
-200 27 51 c81 150 245 258 450 298 94 18 206 19 201 2 -2 -6 -38 -32 -80 -57
-288 -175 -397 -333 -327 -478 27 -56 108 -127 206 -182 268 -149 431 -298
519 -472 19 -38 62 -151 95 -252 67 -200 157 -395 245 -529 l58 -88 98 0 98 0
-26 58 c-128 287 -218 537 -259 718 -23 100 -26 137 -23 234 2 94 7 121 24
150 65 112 211 108 388 -11 75 -50 189 -162 208 -205 22 -49 -6 -44 -96 16
-351 235 -444 50 -271 -542 40 -138 123 -381 140 -408 10 -17 320 -13 390 5
123 32 217 122 255 245 20 64 20 86 18 975 l-3 910 -32 67 c-52 109 -143 182
-261 207 -29 6 -140 11 -247 11 l-194 0 39 -72 c49 -91 86 -203 111 -330 18
-95 25 -198 13 -198 -32 0 -48 29 -134 242 -55 134 -138 243 -207 269 -39 15
-101 10 -142 -10 -58 -30 -140 -126 -232 -272 -139 -221 -262 -331 -374 -333
-70 -2 -75 16 -13 51 105 60 190 171 304 397 37 72 82 156 100 187 19 31 34
59 34 63 0 12 -763 5 -815 -8z"/>
<path d="M160 985 c0 -647 0 -647 67 -745 22 -31 62 -71 93 -92 96 -66 118
-68 632 -68 l457 0 -51 83 c-28 45 -83 147 -121 227 -38 80 -95 200 -127 267
-131 275 -237 380 -536 531 -212 108 -307 187 -381 320 l-33 57 0 -580z"/>
</g>
</svg>
